<mxfile host="www.draw.io" modified="2020-07-07T06:45:19.251Z" agent="5.0 (Windows NT 6.1; Win64; x64) AppleWebKit/537.36 (KHTML, like Gecko) Chrome/83.0.4103.116 Safari/537.36" etag="2_GGlMyBHQ1HEOMDfGFV" version="13.3.6" type="github">
  <diagram id="vnzw8bJyzcfGwnLZNMbN" name="Page-1">
    <mxGraphModel dx="2514" dy="896" grid="1" gridSize="10" guides="1" tooltips="1" connect="1" arrows="1" fold="1" page="1" pageScale="1" pageWidth="850" pageHeight="1100" math="0" shadow="0">
      <root>
        <mxCell id="0" />
        <mxCell id="1" parent="0" />
        <mxCell id="llFSsDkDVZEDRW2Oa7an-2" value="Policy Check-in" style="rounded=1;whiteSpace=wrap;html=1;" parent="1" vertex="1">
          <mxGeometry x="245" y="140" width="120" height="40" as="geometry" />
        </mxCell>
        <mxCell id="llFSsDkDVZEDRW2Oa7an-4" style="edgeStyle=orthogonalEdgeStyle;rounded=0;orthogonalLoop=1;jettySize=auto;html=1;entryX=0.5;entryY=1;entryDx=0;entryDy=0;curved=1;endArrow=none;endFill=0;startArrow=classic;startFill=1;" parent="1" source="llFSsDkDVZEDRW2Oa7an-3" target="llFSsDkDVZEDRW2Oa7an-2" edge="1">
          <mxGeometry relative="1" as="geometry" />
        </mxCell>
        <mxCell id="llFSsDkDVZEDRW2Oa7an-6" style="edgeStyle=orthogonalEdgeStyle;curved=1;rounded=0;orthogonalLoop=1;jettySize=auto;html=1;entryX=0.5;entryY=0;entryDx=0;entryDy=0;endArrow=classic;endFill=1;" parent="1" source="llFSsDkDVZEDRW2Oa7an-3" target="llFSsDkDVZEDRW2Oa7an-5" edge="1">
          <mxGeometry relative="1" as="geometry" />
        </mxCell>
        <mxCell id="llFSsDkDVZEDRW2Oa7an-3" value="Find MO_POLICY by PartnerCode, Status=WAITING, MaxRecord" style="rounded=1;whiteSpace=wrap;html=1;" parent="1" vertex="1">
          <mxGeometry x="230" y="220" width="150" height="70" as="geometry" />
        </mxCell>
        <mxCell id="llFSsDkDVZEDRW2Oa7an-9" style="edgeStyle=orthogonalEdgeStyle;curved=1;rounded=0;orthogonalLoop=1;jettySize=auto;html=1;entryX=0.5;entryY=0;entryDx=0;entryDy=0;startArrow=none;startFill=0;endArrow=classic;endFill=1;" parent="1" source="llFSsDkDVZEDRW2Oa7an-5" target="llFSsDkDVZEDRW2Oa7an-7" edge="1">
          <mxGeometry relative="1" as="geometry" />
        </mxCell>
        <mxCell id="llFSsDkDVZEDRW2Oa7an-13" value="&lt;span style=&quot;font-size: 12px ; background-color: rgb(248 , 249 , 250)&quot;&gt;Duplicate&amp;nbsp;&lt;/span&gt;&lt;span style=&quot;font-size: 12px ; background-color: rgb(248 , 249 , 250)&quot;&gt;ContractNumber&lt;/span&gt;" style="edgeLabel;html=1;align=center;verticalAlign=middle;resizable=0;points=[];" parent="llFSsDkDVZEDRW2Oa7an-9" vertex="1" connectable="0">
          <mxGeometry x="0.16" relative="1" as="geometry">
            <mxPoint x="-71" as="offset" />
          </mxGeometry>
        </mxCell>
        <mxCell id="llFSsDkDVZEDRW2Oa7an-10" style="edgeStyle=orthogonalEdgeStyle;curved=1;rounded=0;orthogonalLoop=1;jettySize=auto;html=1;startArrow=none;startFill=0;endArrow=classic;endFill=1;" parent="1" source="llFSsDkDVZEDRW2Oa7an-5" target="llFSsDkDVZEDRW2Oa7an-8" edge="1">
          <mxGeometry relative="1" as="geometry" />
        </mxCell>
        <mxCell id="llFSsDkDVZEDRW2Oa7an-5" value="Check duplicate policy in FN3 database (check by customerContractNumber)" style="rounded=1;whiteSpace=wrap;html=1;" parent="1" vertex="1">
          <mxGeometry x="215" y="340" width="180" height="70" as="geometry" />
        </mxCell>
        <mxCell id="llFSsDkDVZEDRW2Oa7an-12" style="edgeStyle=orthogonalEdgeStyle;curved=1;rounded=0;orthogonalLoop=1;jettySize=auto;html=1;entryX=0.5;entryY=0;entryDx=0;entryDy=0;startArrow=none;startFill=0;endArrow=classic;endFill=1;" parent="1" source="llFSsDkDVZEDRW2Oa7an-7" target="llFSsDkDVZEDRW2Oa7an-8" edge="1">
          <mxGeometry relative="1" as="geometry" />
        </mxCell>
        <mxCell id="llFSsDkDVZEDRW2Oa7an-7" value="WARNING: Duplicate policy" style="rounded=1;whiteSpace=wrap;html=1;fillColor=#fff2cc;strokeColor=#d6b656;" parent="1" vertex="1">
          <mxGeometry x="65" y="500" width="180" height="40" as="geometry" />
        </mxCell>
        <mxCell id="llFSsDkDVZEDRW2Oa7an-15" style="edgeStyle=orthogonalEdgeStyle;curved=1;rounded=0;orthogonalLoop=1;jettySize=auto;html=1;startArrow=none;startFill=0;endArrow=classic;endFill=1;" parent="1" source="llFSsDkDVZEDRW2Oa7an-8" target="llFSsDkDVZEDRW2Oa7an-14" edge="1">
          <mxGeometry relative="1" as="geometry" />
        </mxCell>
        <mxCell id="llFSsDkDVZEDRW2Oa7an-17" style="edgeStyle=orthogonalEdgeStyle;curved=1;rounded=0;orthogonalLoop=1;jettySize=auto;html=1;entryX=0.5;entryY=0;entryDx=0;entryDy=0;startArrow=none;startFill=0;endArrow=classic;endFill=1;" parent="1" source="llFSsDkDVZEDRW2Oa7an-8" target="llFSsDkDVZEDRW2Oa7an-16" edge="1">
          <mxGeometry relative="1" as="geometry" />
        </mxCell>
        <mxCell id="llFSsDkDVZEDRW2Oa7an-8" value="Check Policy issue date more than Departure date or Return date (Except BU TH and LA)" style="rounded=1;whiteSpace=wrap;html=1;" parent="1" vertex="1">
          <mxGeometry x="215" y="610" width="180" height="70" as="geometry" />
        </mxCell>
        <mxCell id="llFSsDkDVZEDRW2Oa7an-14" value="ERROR: Issued Date is prior than Departure Date or Return Date" style="rounded=1;whiteSpace=wrap;html=1;fillColor=#f8cecc;strokeColor=#b85450;" parent="1" vertex="1">
          <mxGeometry x="40" y="750" width="190" height="60" as="geometry" />
        </mxCell>
        <mxCell id="llFSsDkDVZEDRW2Oa7an-19" style="edgeStyle=orthogonalEdgeStyle;curved=1;rounded=0;orthogonalLoop=1;jettySize=auto;html=1;entryX=0.5;entryY=0;entryDx=0;entryDy=0;startArrow=none;startFill=0;endArrow=classic;endFill=1;" parent="1" source="llFSsDkDVZEDRW2Oa7an-16" target="llFSsDkDVZEDRW2Oa7an-18" edge="1">
          <mxGeometry relative="1" as="geometry">
            <Array as="points">
              <mxPoint x="305" y="880" />
              <mxPoint x="118" y="880" />
            </Array>
          </mxGeometry>
        </mxCell>
        <mxCell id="llFSsDkDVZEDRW2Oa7an-20" value="0 passenger" style="edgeLabel;html=1;align=center;verticalAlign=middle;resizable=0;points=[];" parent="llFSsDkDVZEDRW2Oa7an-19" vertex="1" connectable="0">
          <mxGeometry x="-0.0864" y="23" relative="1" as="geometry">
            <mxPoint x="-57" y="-13" as="offset" />
          </mxGeometry>
        </mxCell>
        <mxCell id="llFSsDkDVZEDRW2Oa7an-23" style="edgeStyle=orthogonalEdgeStyle;curved=1;rounded=0;orthogonalLoop=1;jettySize=auto;html=1;startArrow=none;startFill=0;endArrow=classic;endFill=1;" parent="1" source="llFSsDkDVZEDRW2Oa7an-16" target="llFSsDkDVZEDRW2Oa7an-22" edge="1">
          <mxGeometry relative="1" as="geometry">
            <Array as="points">
              <mxPoint x="305" y="890" />
              <mxPoint x="240" y="890" />
              <mxPoint x="240" y="1020" />
            </Array>
          </mxGeometry>
        </mxCell>
        <mxCell id="llFSsDkDVZEDRW2Oa7an-24" value="number of passenger != list of passenger data" style="edgeLabel;html=1;align=center;verticalAlign=middle;resizable=0;points=[];" parent="llFSsDkDVZEDRW2Oa7an-23" vertex="1" connectable="0">
          <mxGeometry x="-0.4292" y="1" relative="1" as="geometry">
            <mxPoint x="-71" y="89" as="offset" />
          </mxGeometry>
        </mxCell>
        <mxCell id="n741ubfPJ3tw46yTXTQa-1" style="edgeStyle=orthogonalEdgeStyle;rounded=0;orthogonalLoop=1;jettySize=auto;html=1;curved=1;" edge="1" parent="1" source="llFSsDkDVZEDRW2Oa7an-16" target="llFSsDkDVZEDRW2Oa7an-48">
          <mxGeometry relative="1" as="geometry" />
        </mxCell>
        <mxCell id="llFSsDkDVZEDRW2Oa7an-16" value="Count passenger" style="rounded=1;whiteSpace=wrap;html=1;" parent="1" vertex="1">
          <mxGeometry x="247.5" y="830" width="115" height="40" as="geometry" />
        </mxCell>
        <mxCell id="llFSsDkDVZEDRW2Oa7an-18" value="ERROR: NULL Passenger" style="rounded=1;whiteSpace=wrap;html=1;fillColor=#f8cecc;strokeColor=#b85450;" parent="1" vertex="1">
          <mxGeometry x="40" y="920" width="155" height="40" as="geometry" />
        </mxCell>
        <mxCell id="llFSsDkDVZEDRW2Oa7an-22" value="ERROR: Miss match Passenger" style="rounded=1;whiteSpace=wrap;html=1;fillColor=#f8cecc;strokeColor=#b85450;" parent="1" vertex="1">
          <mxGeometry x="40" y="1000" width="155" height="40" as="geometry" />
        </mxCell>
        <mxCell id="llFSsDkDVZEDRW2Oa7an-41" style="edgeStyle=orthogonalEdgeStyle;curved=1;rounded=0;orthogonalLoop=1;jettySize=auto;html=1;startArrow=none;startFill=0;endArrow=classic;endFill=1;" parent="1" source="llFSsDkDVZEDRW2Oa7an-32" target="llFSsDkDVZEDRW2Oa7an-39" edge="1">
          <mxGeometry relative="1" as="geometry">
            <Array as="points">
              <mxPoint x="400" y="1260" />
              <mxPoint x="220" y="1260" />
            </Array>
          </mxGeometry>
        </mxCell>
        <mxCell id="llFSsDkDVZEDRW2Oa7an-42" value="&lt;span style=&quot;font-size: 12px ; background-color: rgb(248 , 249 , 250)&quot;&gt;Agency contract code not found&lt;/span&gt;" style="edgeLabel;html=1;align=center;verticalAlign=middle;resizable=0;points=[];" parent="llFSsDkDVZEDRW2Oa7an-41" vertex="1" connectable="0">
          <mxGeometry x="0.1625" y="1" relative="1" as="geometry">
            <mxPoint x="1" as="offset" />
          </mxGeometry>
        </mxCell>
        <mxCell id="n741ubfPJ3tw46yTXTQa-5" style="edgeStyle=orthogonalEdgeStyle;curved=1;rounded=0;orthogonalLoop=1;jettySize=auto;html=1;entryX=0.5;entryY=0;entryDx=0;entryDy=0;" edge="1" parent="1" source="llFSsDkDVZEDRW2Oa7an-32" target="n741ubfPJ3tw46yTXTQa-4">
          <mxGeometry relative="1" as="geometry" />
        </mxCell>
        <mxCell id="llFSsDkDVZEDRW2Oa7an-32" value="Find AgencyContractExtCode by Product Variant ID&amp;nbsp;" style="rounded=1;whiteSpace=wrap;html=1;fillColor=#d5e8d4;strokeColor=#82b366;" parent="1" vertex="1">
          <mxGeometry x="302" y="1150" width="195" height="50" as="geometry" />
        </mxCell>
        <mxCell id="llFSsDkDVZEDRW2Oa7an-39" value="ERROR: Agency contract code not found" style="rounded=1;whiteSpace=wrap;html=1;fillColor=#f8cecc;strokeColor=#b85450;" parent="1" vertex="1">
          <mxGeometry x="142" y="1310" width="155" height="40" as="geometry" />
        </mxCell>
        <mxCell id="n741ubfPJ3tw46yTXTQa-60" style="edgeStyle=orthogonalEdgeStyle;curved=1;rounded=0;orthogonalLoop=1;jettySize=auto;html=1;" edge="1" parent="1" source="llFSsDkDVZEDRW2Oa7an-43">
          <mxGeometry relative="1" as="geometry">
            <mxPoint x="77" y="1820" as="targetPoint" />
          </mxGeometry>
        </mxCell>
        <mxCell id="llFSsDkDVZEDRW2Oa7an-43" value="Find AgencyContractExtCode by Product Variant ID&amp;nbsp;" style="rounded=1;whiteSpace=wrap;html=1;fillColor=#d5e8d4;strokeColor=#82b366;" parent="1" vertex="1">
          <mxGeometry x="12" y="1680.29" width="130" height="50" as="geometry" />
        </mxCell>
        <mxCell id="llFSsDkDVZEDRW2Oa7an-45" value="ERROR: Can not insert the policy ,because current product not found" style="rounded=1;whiteSpace=wrap;html=1;fillColor=#f8cecc;strokeColor=#b85450;" parent="1" vertex="1">
          <mxGeometry x="1000" y="1795" width="155" height="60" as="geometry" />
        </mxCell>
        <mxCell id="n741ubfPJ3tw46yTXTQa-2" style="edgeStyle=orthogonalEdgeStyle;curved=1;rounded=0;orthogonalLoop=1;jettySize=auto;html=1;entryX=0.5;entryY=0;entryDx=0;entryDy=0;" edge="1" parent="1" source="llFSsDkDVZEDRW2Oa7an-48" target="llFSsDkDVZEDRW2Oa7an-32">
          <mxGeometry relative="1" as="geometry">
            <mxPoint x="400" y="1130" as="targetPoint" />
          </mxGeometry>
        </mxCell>
        <mxCell id="llFSsDkDVZEDRW2Oa7an-48" value="Try to convert mo_policy to Policy and passenger" style="rounded=1;whiteSpace=wrap;html=1;" parent="1" vertex="1">
          <mxGeometry x="302.5" y="1020" width="195" height="50" as="geometry" />
        </mxCell>
        <mxCell id="n741ubfPJ3tw46yTXTQa-3" value="&lt;pre style=&quot;background-color: #2b2b2b ; color: #a9b7c6 ; font-family: &amp;#34;courier new&amp;#34; ; font-size: 9.0pt&quot;&gt;&lt;span style=&quot;background-color: #344134&quot;&gt;PolicyCheckInServiceImpl.persistMOPolicy&lt;/span&gt;&lt;/pre&gt;" style="text;html=1;align=center;verticalAlign=middle;resizable=0;points=[];autosize=1;" vertex="1" parent="1">
          <mxGeometry x="495" y="1025" width="300" height="40" as="geometry" />
        </mxCell>
        <mxCell id="n741ubfPJ3tw46yTXTQa-9" value="mo policy currency != location currency" style="edgeStyle=orthogonalEdgeStyle;curved=1;rounded=0;orthogonalLoop=1;jettySize=auto;html=1;" edge="1" parent="1" source="n741ubfPJ3tw46yTXTQa-4" target="n741ubfPJ3tw46yTXTQa-6">
          <mxGeometry x="0.7652" y="-22" relative="1" as="geometry">
            <Array as="points">
              <mxPoint x="400" y="1460.29" />
              <mxPoint x="244" y="1460.29" />
            </Array>
            <mxPoint as="offset" />
          </mxGeometry>
        </mxCell>
        <mxCell id="n741ubfPJ3tw46yTXTQa-10" style="edgeStyle=orthogonalEdgeStyle;curved=1;rounded=0;orthogonalLoop=1;jettySize=auto;html=1;entryX=0.5;entryY=0;entryDx=0;entryDy=0;" edge="1" parent="1" source="n741ubfPJ3tw46yTXTQa-4" target="n741ubfPJ3tw46yTXTQa-7">
          <mxGeometry relative="1" as="geometry">
            <Array as="points">
              <mxPoint x="400" y="1450.29" />
              <mxPoint x="532" y="1450.29" />
            </Array>
          </mxGeometry>
        </mxCell>
        <mxCell id="n741ubfPJ3tw46yTXTQa-4" value="Pricing" style="rounded=1;whiteSpace=wrap;html=1;" vertex="1" parent="1">
          <mxGeometry x="339.5" y="1370.29" width="120" height="50" as="geometry" />
        </mxCell>
        <mxCell id="n741ubfPJ3tw46yTXTQa-15" style="edgeStyle=orthogonalEdgeStyle;curved=1;rounded=0;orthogonalLoop=1;jettySize=auto;html=1;entryX=0.5;entryY=0;entryDx=0;entryDy=0;" edge="1" parent="1" source="n741ubfPJ3tw46yTXTQa-6" target="n741ubfPJ3tw46yTXTQa-11">
          <mxGeometry relative="1" as="geometry" />
        </mxCell>
        <mxCell id="n741ubfPJ3tw46yTXTQa-23" style="edgeStyle=orthogonalEdgeStyle;curved=1;rounded=0;orthogonalLoop=1;jettySize=auto;html=1;entryX=0.5;entryY=0;entryDx=0;entryDy=0;" edge="1" parent="1" source="n741ubfPJ3tw46yTXTQa-6" target="llFSsDkDVZEDRW2Oa7an-43">
          <mxGeometry relative="1" as="geometry">
            <mxPoint x="77" y="1620.29" as="targetPoint" />
          </mxGeometry>
        </mxCell>
        <mxCell id="n741ubfPJ3tw46yTXTQa-32" style="edgeStyle=orthogonalEdgeStyle;curved=1;rounded=0;orthogonalLoop=1;jettySize=auto;html=1;entryX=0.5;entryY=0;entryDx=0;entryDy=0;" edge="1" parent="1" source="n741ubfPJ3tw46yTXTQa-6" target="n741ubfPJ3tw46yTXTQa-31">
          <mxGeometry relative="1" as="geometry" />
        </mxCell>
        <mxCell id="n741ubfPJ3tw46yTXTQa-6" value="Convert premium rate" style="rounded=1;whiteSpace=wrap;html=1;" vertex="1" parent="1">
          <mxGeometry x="172" y="1520.29" width="130" height="50" as="geometry" />
        </mxCell>
        <mxCell id="n741ubfPJ3tw46yTXTQa-63" style="edgeStyle=orthogonalEdgeStyle;curved=1;rounded=0;orthogonalLoop=1;jettySize=auto;html=1;" edge="1" parent="1" source="n741ubfPJ3tw46yTXTQa-7">
          <mxGeometry relative="1" as="geometry">
            <mxPoint x="532" y="1680" as="targetPoint" />
          </mxGeometry>
        </mxCell>
        <mxCell id="n741ubfPJ3tw46yTXTQa-70" style="edgeStyle=orthogonalEdgeStyle;curved=1;rounded=0;orthogonalLoop=1;jettySize=auto;html=1;entryX=0.5;entryY=0;entryDx=0;entryDy=0;" edge="1" parent="1" source="n741ubfPJ3tw46yTXTQa-7" target="n741ubfPJ3tw46yTXTQa-69">
          <mxGeometry relative="1" as="geometry" />
        </mxCell>
        <mxCell id="n741ubfPJ3tw46yTXTQa-71" value="Other conversion method" style="edgeLabel;html=1;align=center;verticalAlign=middle;resizable=0;points=[];" vertex="1" connectable="0" parent="n741ubfPJ3tw46yTXTQa-70">
          <mxGeometry x="0.7564" y="-5" relative="1" as="geometry">
            <mxPoint as="offset" />
          </mxGeometry>
        </mxCell>
        <mxCell id="n741ubfPJ3tw46yTXTQa-7" value="Pricing" style="rounded=1;whiteSpace=wrap;html=1;" vertex="1" parent="1">
          <mxGeometry x="472" y="1520.29" width="120" height="50" as="geometry" />
        </mxCell>
        <mxCell id="n741ubfPJ3tw46yTXTQa-21" style="edgeStyle=orthogonalEdgeStyle;curved=1;rounded=0;orthogonalLoop=1;jettySize=auto;html=1;entryX=0.5;entryY=0;entryDx=0;entryDy=0;" edge="1" parent="1" source="n741ubfPJ3tw46yTXTQa-11" target="n741ubfPJ3tw46yTXTQa-19">
          <mxGeometry relative="1" as="geometry" />
        </mxCell>
        <mxCell id="n741ubfPJ3tw46yTXTQa-29" style="edgeStyle=orthogonalEdgeStyle;curved=1;rounded=0;orthogonalLoop=1;jettySize=auto;html=1;entryX=0.5;entryY=0;entryDx=0;entryDy=0;" edge="1" parent="1" source="n741ubfPJ3tw46yTXTQa-11" target="n741ubfPJ3tw46yTXTQa-25">
          <mxGeometry relative="1" as="geometry">
            <Array as="points">
              <mxPoint x="-108" y="1760.29" />
              <mxPoint x="-320" y="1760.29" />
            </Array>
          </mxGeometry>
        </mxCell>
        <mxCell id="n741ubfPJ3tw46yTXTQa-11" value="Get forex exchange rate" style="rounded=1;whiteSpace=wrap;html=1;" vertex="1" parent="1">
          <mxGeometry x="-173" y="1680.29" width="130" height="50" as="geometry" />
        </mxCell>
        <mxCell id="n741ubfPJ3tw46yTXTQa-14" value="&lt;span style=&quot;color: rgb(0, 0, 0); font-family: helvetica; font-size: 12px; font-style: normal; font-weight: 400; letter-spacing: normal; text-align: center; text-indent: 0px; text-transform: none; word-spacing: 0px; background-color: rgb(248, 249, 250); display: inline; float: none;&quot;&gt;conversion method = USE CONVERSION&lt;/span&gt;" style="text;whiteSpace=wrap;html=1;" vertex="1" parent="1">
          <mxGeometry x="-293" y="1630.29" width="250" height="30" as="geometry" />
        </mxCell>
        <mxCell id="n741ubfPJ3tw46yTXTQa-18" style="edgeStyle=orthogonalEdgeStyle;curved=1;rounded=0;orthogonalLoop=1;jettySize=auto;html=1;entryX=0;entryY=0.5;entryDx=0;entryDy=0;" edge="1" parent="1" source="n741ubfPJ3tw46yTXTQa-17" target="n741ubfPJ3tw46yTXTQa-11">
          <mxGeometry relative="1" as="geometry" />
        </mxCell>
        <mxCell id="n741ubfPJ3tw46yTXTQa-17" value="table =&amp;nbsp;&lt;span style=&quot;color: rgb(0 , 0 , 0) ; text-align: center&quot;&gt;foreign_exchange&lt;/span&gt;" style="rounded=0;whiteSpace=wrap;html=1;align=left;fillColor=#f5f5f5;strokeColor=#666666;fontColor=#333333;" vertex="1" parent="1">
          <mxGeometry x="-368" y="1690.29" width="150" height="30" as="geometry" />
        </mxCell>
        <mxCell id="n741ubfPJ3tw46yTXTQa-73" style="edgeStyle=orthogonalEdgeStyle;curved=1;rounded=0;orthogonalLoop=1;jettySize=auto;html=1;" edge="1" parent="1" source="n741ubfPJ3tw46yTXTQa-19" target="n741ubfPJ3tw46yTXTQa-72">
          <mxGeometry relative="1" as="geometry">
            <Array as="points">
              <mxPoint x="-108" y="2100" />
              <mxPoint x="388" y="2100" />
            </Array>
          </mxGeometry>
        </mxCell>
        <mxCell id="n741ubfPJ3tw46yTXTQa-19" value="Convert new premium" style="rounded=1;whiteSpace=wrap;html=1;" vertex="1" parent="1">
          <mxGeometry x="-170.5" y="1820.29" width="125" height="51" as="geometry" />
        </mxCell>
        <mxCell id="n741ubfPJ3tw46yTXTQa-24" value="&lt;span style=&quot;color: rgb(0 , 0 , 0) ; font-family: &amp;#34;helvetica&amp;#34; ; font-size: 12px ; font-style: normal ; font-weight: 400 ; letter-spacing: normal ; text-align: center ; text-indent: 0px ; text-transform: none ; word-spacing: 0px ; background-color: rgb(248 , 249 , 250) ; display: inline ; float: none&quot;&gt;conversion method = NEW_QUOTATION&lt;/span&gt;" style="text;whiteSpace=wrap;html=1;" vertex="1" parent="1">
          <mxGeometry x="-18" y="1630.29" width="250" height="30" as="geometry" />
        </mxCell>
        <mxCell id="n741ubfPJ3tw46yTXTQa-25" value="ERROR: Currency not found" style="rounded=1;whiteSpace=wrap;html=1;fillColor=#f8cecc;strokeColor=#b85450;" vertex="1" parent="1">
          <mxGeometry x="-408" y="1820.29" width="175" height="40" as="geometry" />
        </mxCell>
        <mxCell id="n741ubfPJ3tw46yTXTQa-28" value="Cannot find forex exchange rate" style="edgeLabel;html=1;align=center;verticalAlign=middle;resizable=0;points=[];" vertex="1" connectable="0" parent="1">
          <mxGeometry x="-348" y="1790.2852941176466" as="geometry" />
        </mxCell>
        <mxCell id="n741ubfPJ3tw46yTXTQa-31" value="ERROR: Unsupported conversion method" style="rounded=1;whiteSpace=wrap;html=1;fillColor=#f8cecc;strokeColor=#b85450;" vertex="1" parent="1">
          <mxGeometry x="232" y="1690.29" width="175" height="40" as="geometry" />
        </mxCell>
        <mxCell id="n741ubfPJ3tw46yTXTQa-35" value="&lt;span style=&quot;color: rgb(0 , 0 , 0) ; font-family: &amp;#34;helvetica&amp;#34; ; font-size: 12px ; font-style: normal ; font-weight: 400 ; letter-spacing: normal ; text-align: center ; text-indent: 0px ; text-transform: none ; word-spacing: 0px ; background-color: rgb(248 , 249 , 250) ; display: inline ; float: none&quot;&gt;conversion method = NOTHING&lt;/span&gt;" style="text;whiteSpace=wrap;html=1;" vertex="1" parent="1">
          <mxGeometry x="209.5" y="1650.29" width="250" height="30" as="geometry" />
        </mxCell>
        <mxCell id="n741ubfPJ3tw46yTXTQa-74" style="edgeStyle=orthogonalEdgeStyle;curved=1;rounded=0;orthogonalLoop=1;jettySize=auto;html=1;entryX=0.44;entryY=0.009;entryDx=0;entryDy=0;entryPerimeter=0;" edge="1" parent="1" source="n741ubfPJ3tw46yTXTQa-38" target="n741ubfPJ3tw46yTXTQa-72">
          <mxGeometry relative="1" as="geometry">
            <Array as="points">
              <mxPoint x="74" y="2040" />
              <mxPoint x="390" y="2040" />
            </Array>
          </mxGeometry>
        </mxCell>
        <mxCell id="n741ubfPJ3tw46yTXTQa-38" value="Calculate oremium" style="rounded=1;whiteSpace=wrap;html=1;" vertex="1" parent="1">
          <mxGeometry x="12" y="1940" width="125" height="51" as="geometry" />
        </mxCell>
        <mxCell id="n741ubfPJ3tw46yTXTQa-44" value="" style="rounded=0;whiteSpace=wrap;html=1;strokeColor=#82b366;fillColor=#d5e8d4;" vertex="1" parent="1">
          <mxGeometry x="1270" y="1100" width="1060" height="420" as="geometry" />
        </mxCell>
        <mxCell id="n741ubfPJ3tw46yTXTQa-45" value="Policy with promotion code" style="edgeStyle=orthogonalEdgeStyle;curved=1;rounded=0;orthogonalLoop=1;jettySize=auto;html=1;entryX=0.5;entryY=0;entryDx=0;entryDy=0;startArrow=none;startFill=0;endArrow=classic;endFill=1;" edge="1" parent="1" source="n741ubfPJ3tw46yTXTQa-48" target="n741ubfPJ3tw46yTXTQa-50">
          <mxGeometry x="0.6842" y="-10" relative="1" as="geometry">
            <mxPoint as="offset" />
          </mxGeometry>
        </mxCell>
        <mxCell id="n741ubfPJ3tw46yTXTQa-46" style="edgeStyle=orthogonalEdgeStyle;curved=1;rounded=0;orthogonalLoop=1;jettySize=auto;html=1;startArrow=none;startFill=0;endArrow=classic;endFill=1;" edge="1" parent="1" source="n741ubfPJ3tw46yTXTQa-48" target="n741ubfPJ3tw46yTXTQa-52">
          <mxGeometry relative="1" as="geometry" />
        </mxCell>
        <mxCell id="n741ubfPJ3tw46yTXTQa-47" value="Policy without promotion code" style="edgeLabel;html=1;align=center;verticalAlign=middle;resizable=0;points=[];" vertex="1" connectable="0" parent="n741ubfPJ3tw46yTXTQa-46">
          <mxGeometry x="0.4197" y="-5" relative="1" as="geometry">
            <mxPoint as="offset" />
          </mxGeometry>
        </mxCell>
        <mxCell id="n741ubfPJ3tw46yTXTQa-48" value="Check policy has promotion code" style="rounded=1;whiteSpace=wrap;html=1;" vertex="1" parent="1">
          <mxGeometry x="1650" y="1130" width="160" height="50" as="geometry" />
        </mxCell>
        <mxCell id="n741ubfPJ3tw46yTXTQa-49" style="edgeStyle=orthogonalEdgeStyle;curved=1;rounded=0;orthogonalLoop=1;jettySize=auto;html=1;entryX=0.5;entryY=0;entryDx=0;entryDy=0;startArrow=none;startFill=0;endArrow=classic;endFill=1;" edge="1" parent="1" source="n741ubfPJ3tw46yTXTQa-50" target="n741ubfPJ3tw46yTXTQa-54">
          <mxGeometry relative="1" as="geometry" />
        </mxCell>
        <mxCell id="n741ubfPJ3tw46yTXTQa-50" value="Find Product Variant ID from agencyContractValuesOverriding (***China only, for promo code --&amp;nbsp;&lt;span style=&quot;color: rgb(106 , 135 , 89) ; background-color: rgb(43 , 43 , 43) ; font-family: &amp;#34;courier new&amp;#34; ; font-size: 9pt&quot;&gt;SCBSTAFF&lt;/span&gt;&lt;span&gt;)&lt;/span&gt;" style="rounded=1;whiteSpace=wrap;html=1;" vertex="1" parent="1">
          <mxGeometry x="1500" y="1289.71" width="195" height="70" as="geometry" />
        </mxCell>
        <mxCell id="n741ubfPJ3tw46yTXTQa-51" style="edgeStyle=orthogonalEdgeStyle;curved=1;rounded=0;orthogonalLoop=1;jettySize=auto;html=1;entryX=0.5;entryY=0;entryDx=0;entryDy=0;startArrow=none;startFill=0;endArrow=classic;endFill=1;" edge="1" parent="1" source="n741ubfPJ3tw46yTXTQa-52" target="n741ubfPJ3tw46yTXTQa-54">
          <mxGeometry relative="1" as="geometry" />
        </mxCell>
        <mxCell id="n741ubfPJ3tw46yTXTQa-52" value="Product Variant ID =&amp;nbsp;ProductVariantBUReference from emargin xml" style="rounded=1;whiteSpace=wrap;html=1;" vertex="1" parent="1">
          <mxGeometry x="1745" y="1289.71" width="195" height="70" as="geometry" />
        </mxCell>
        <mxCell id="n741ubfPJ3tw46yTXTQa-54" value="Find AgencyContractExtCode by Product Variant ID&amp;nbsp;" style="rounded=1;whiteSpace=wrap;html=1;" vertex="1" parent="1">
          <mxGeometry x="1630" y="1429.71" width="195" height="50" as="geometry" />
        </mxCell>
        <mxCell id="n741ubfPJ3tw46yTXTQa-55" style="edgeStyle=orthogonalEdgeStyle;curved=1;rounded=0;orthogonalLoop=1;jettySize=auto;html=1;entryX=1;entryY=0.5;entryDx=0;entryDy=0;startArrow=none;startFill=0;endArrow=classic;endFill=1;" edge="1" parent="1" source="n741ubfPJ3tw46yTXTQa-56" target="n741ubfPJ3tw46yTXTQa-54">
          <mxGeometry relative="1" as="geometry" />
        </mxCell>
        <mxCell id="n741ubfPJ3tw46yTXTQa-56" value="&lt;div&gt;select * from agency_contract ac&amp;nbsp;&lt;/div&gt;&lt;div&gt;join contract_ext_code cext on cext.agencyContract&amp;nbsp; = ac.id&amp;nbsp;&lt;/div&gt;&lt;div&gt;where cext.code = {Product Variant ID}&lt;/div&gt;&lt;div&gt;and cext.`type` = {Loading Tool ex.&amp;nbsp; EMAGIN_MO....}&lt;/div&gt;" style="rounded=0;whiteSpace=wrap;html=1;align=left;fillColor=#f5f5f5;strokeColor=#666666;fontColor=#333333;" vertex="1" parent="1">
          <mxGeometry x="1900" y="1399.71" width="380" height="80" as="geometry" />
        </mxCell>
        <mxCell id="n741ubfPJ3tw46yTXTQa-58" value="Find AgencyContractExtCode by Product Variant ID&amp;nbsp;" style="text;html=1;strokeColor=none;fillColor=none;align=center;verticalAlign=middle;whiteSpace=wrap;rounded=0;" vertex="1" parent="1">
          <mxGeometry x="1270" y="1110" width="310" height="20" as="geometry" />
        </mxCell>
        <mxCell id="n741ubfPJ3tw46yTXTQa-61" style="edgeStyle=orthogonalEdgeStyle;curved=1;rounded=0;orthogonalLoop=1;jettySize=auto;html=1;" edge="1" parent="1" source="n741ubfPJ3tw46yTXTQa-59" target="n741ubfPJ3tw46yTXTQa-38">
          <mxGeometry relative="1" as="geometry" />
        </mxCell>
        <mxCell id="n741ubfPJ3tw46yTXTQa-59" value="Find current product" style="rounded=1;whiteSpace=wrap;html=1;fillColor=#d5e8d4;strokeColor=#82b366;" vertex="1" parent="1">
          <mxGeometry x="9.5" y="1820.29" width="130" height="50" as="geometry" />
        </mxCell>
        <mxCell id="n741ubfPJ3tw46yTXTQa-68" style="edgeStyle=orthogonalEdgeStyle;curved=1;rounded=0;orthogonalLoop=1;jettySize=auto;html=1;entryX=0.5;entryY=0;entryDx=0;entryDy=0;" edge="1" parent="1" source="n741ubfPJ3tw46yTXTQa-62" target="n741ubfPJ3tw46yTXTQa-67">
          <mxGeometry relative="1" as="geometry" />
        </mxCell>
        <mxCell id="n741ubfPJ3tw46yTXTQa-62" value="Find AgencyContractExtCode by Product Variant ID&amp;nbsp;" style="rounded=1;whiteSpace=wrap;html=1;fillColor=#d5e8d4;strokeColor=#82b366;" vertex="1" parent="1">
          <mxGeometry x="467" y="1680.29" width="130" height="50" as="geometry" />
        </mxCell>
        <mxCell id="n741ubfPJ3tw46yTXTQa-64" value="&lt;span style=&quot;color: rgb(0 , 0 , 0) ; font-family: &amp;#34;helvetica&amp;#34; ; font-size: 12px ; font-style: normal ; font-weight: 400 ; letter-spacing: normal ; text-align: center ; text-indent: 0px ; text-transform: none ; word-spacing: 0px ; background-color: rgb(248 , 249 , 250) ; display: inline ; float: none&quot;&gt;conversion method = NEW_QUOTATION&lt;/span&gt;" style="text;whiteSpace=wrap;html=1;" vertex="1" parent="1">
          <mxGeometry x="450" y="1635" width="250" height="30" as="geometry" />
        </mxCell>
        <mxCell id="n741ubfPJ3tw46yTXTQa-75" style="edgeStyle=orthogonalEdgeStyle;curved=1;rounded=0;orthogonalLoop=1;jettySize=auto;html=1;entryX=0.431;entryY=-0.014;entryDx=0;entryDy=0;entryPerimeter=0;" edge="1" parent="1" source="n741ubfPJ3tw46yTXTQa-65" target="n741ubfPJ3tw46yTXTQa-72">
          <mxGeometry relative="1" as="geometry">
            <Array as="points">
              <mxPoint x="532" y="2060" />
              <mxPoint x="388" y="2060" />
            </Array>
          </mxGeometry>
        </mxCell>
        <mxCell id="n741ubfPJ3tw46yTXTQa-65" value="Calculate oremium" style="rounded=1;whiteSpace=wrap;html=1;" vertex="1" parent="1">
          <mxGeometry x="469.5" y="1940" width="125" height="51" as="geometry" />
        </mxCell>
        <mxCell id="n741ubfPJ3tw46yTXTQa-66" style="edgeStyle=orthogonalEdgeStyle;curved=1;rounded=0;orthogonalLoop=1;jettySize=auto;html=1;" edge="1" parent="1" source="n741ubfPJ3tw46yTXTQa-67" target="n741ubfPJ3tw46yTXTQa-65">
          <mxGeometry relative="1" as="geometry" />
        </mxCell>
        <mxCell id="n741ubfPJ3tw46yTXTQa-67" value="Find current product" style="rounded=1;whiteSpace=wrap;html=1;fillColor=#d5e8d4;strokeColor=#82b366;" vertex="1" parent="1">
          <mxGeometry x="467" y="1820.29" width="130" height="50" as="geometry" />
        </mxCell>
        <mxCell id="n741ubfPJ3tw46yTXTQa-76" style="edgeStyle=orthogonalEdgeStyle;curved=1;rounded=0;orthogonalLoop=1;jettySize=auto;html=1;entryX=0.431;entryY=-0.014;entryDx=0;entryDy=0;entryPerimeter=0;" edge="1" parent="1" source="n741ubfPJ3tw46yTXTQa-69" target="n741ubfPJ3tw46yTXTQa-72">
          <mxGeometry relative="1" as="geometry">
            <Array as="points">
              <mxPoint x="788" y="2110" />
              <mxPoint x="388" y="2110" />
            </Array>
          </mxGeometry>
        </mxCell>
        <mxCell id="n741ubfPJ3tw46yTXTQa-69" value="Use premium from emagin" style="rounded=1;whiteSpace=wrap;html=1;" vertex="1" parent="1">
          <mxGeometry x="725" y="1679.29" width="125" height="51" as="geometry" />
        </mxCell>
        <mxCell id="n741ubfPJ3tw46yTXTQa-78" style="edgeStyle=orthogonalEdgeStyle;curved=1;rounded=0;orthogonalLoop=1;jettySize=auto;html=1;entryX=0.5;entryY=0;entryDx=0;entryDy=0;" edge="1" parent="1" source="n741ubfPJ3tw46yTXTQa-72" target="n741ubfPJ3tw46yTXTQa-77">
          <mxGeometry relative="1" as="geometry" />
        </mxCell>
        <mxCell id="n741ubfPJ3tw46yTXTQa-72" value="Premium" style="rounded=1;whiteSpace=wrap;html=1;" vertex="1" parent="1">
          <mxGeometry x="334.5" y="2180" width="125" height="51" as="geometry" />
        </mxCell>
        <mxCell id="n741ubfPJ3tw46yTXTQa-77" value="Fronter validation (depend on fronter setting )" style="rounded=1;whiteSpace=wrap;html=1;" vertex="1" parent="1">
          <mxGeometry x="334.5" y="2280" width="125" height="51" as="geometry" />
        </mxCell>
        <mxCell id="n741ubfPJ3tw46yTXTQa-79" value="Set fronter validation status: OK, IGNORE, JEJECT&amp;nbsp;" style="rounded=1;whiteSpace=wrap;html=1;" vertex="1" parent="1">
          <mxGeometry x="314.25" y="2390" width="165.5" height="51" as="geometry" />
        </mxCell>
      </root>
    </mxGraphModel>
  </diagram>
</mxfile>
